<?xml version="1.0" standalone="no"?>
<!DOCTYPE svg PUBLIC "-//W3C//DTD SVG 20010904//EN"
 "http://www.w3.org/TR/2001/REC-SVG-20010904/DTD/svg10.dtd">
<svg version="1.0" xmlns="http://www.w3.org/2000/svg"
 width="512.000000pt" height="512.000000pt" viewBox="0 0 512.000000 512.000000"
 preserveAspectRatio="xMidYMid meet">
<metadata>
Created by potrace 1.11, written by Peter Selinger 2001-2013
</metadata>
<g transform="translate(0.000000,512.000000) scale(0.100000,-0.100000)"
fill="#000000" stroke="none">
<path d="M2524 5111 c-12 -5 -31 -22 -43 -37 -21 -27 -22 -36 -19 -196 3 -166
3 -168 30 -194 37 -37 99 -37 136 0 l27 26 0 175 c0 173 0 175 -25 200 -28 28
-74 39 -106 26z"/>
<path d="M1963 4890 c-30 -12 -55 -53 -56 -92 0 -37 127 -266 170 -305 64 -60
180 9 159 93 -4 15 -41 85 -83 156 -89 152 -120 176 -190 148z"/>
<path d="M3069 4885 c-28 -15 -172 -249 -185 -299 -8 -34 11 -81 42 -101 35
-22 88 -19 117 8 43 39 170 268 170 305 -2 79 -76 124 -144 87z"/>
<path d="M1711 4160 c-81 -19 -106 -58 -152 -239 -35 -134 -37 -163 -18 -215
12 -32 9 -41 -53 -177 -36 -79 -110 -255 -164 -391 l-99 -247 -53 -22 c-156
-64 -322 -229 -403 -402 -17 -36 -126 -426 -265 -942 -265 -982 -262 -970
-213 -1076 30 -64 91 -126 152 -157 24 -12 263 -81 532 -154 440 -118 498
-132 570 -132 64 0 91 5 135 26 66 31 127 88 152 144 16 38 416 1511 474 1749
58 240 9 500 -129 678 l-30 38 32 222 c33 233 55 418 67 551 6 75 8 80 45 113
41 37 53 67 100 255 25 97 20 139 -22 192 -32 40 -58 50 -315 119 -273 73
-296 78 -343 67z m407 -292 c66 -16 82 -24 78 -37 -3 -9 -13 -46 -22 -83 -13
-55 -20 -68 -36 -68 -11 0 -32 -13 -47 -28 -23 -23 -29 -40 -34 -92 -4 -36 -9
-95 -13 -132 l-6 -68 -203 0 -203 0 74 160 c80 172 88 210 53 254 -21 26 -21
28 -4 99 10 40 19 75 21 79 2 3 61 -9 132 -28 70 -19 164 -44 210 -56z m-108
-725 c0 -10 -12 -107 -27 -216 l-27 -198 -26 6 c-62 14 -120 -34 -120 -97 1
-68 32 -96 134 -119 55 -12 61 -16 92 -65 46 -72 83 -189 91 -285 5 -66 4 -79
-8 -75 -8 3 -270 73 -584 157 -313 83 -571 152 -573 154 -1 1 20 33 47 72 80
114 180 191 283 218 28 8 62 24 74 37 13 13 55 104 94 203 39 99 75 190 80
203 10 22 11 22 240 22 212 0 230 -1 230 -17z m-520 -1093 c311 -83 572 -154
581 -158 14 -6 -4 -85 -147 -617 -91 -335 -168 -622 -172 -636 l-7 -27 -588
158 c-323 86 -590 160 -594 163 -4 5 309 1199 332 1264 2 7 10 11 17 8 7 -2
267 -72 578 -155z m-391 -1477 c322 -86 588 -158 590 -159 8 -6 -33 -140 -51
-166 -27 -39 -74 -49 -150 -33 -134 28 -935 247 -963 264 -16 9 -38 33 -48 53
-15 31 -16 43 -7 80 6 24 16 60 21 81 5 20 12 37 16 37 3 0 269 -71 592 -157z"/>
<path d="M1549 2781 c-91 -91 46 -230 140 -142 67 63 23 171 -69 171 -33 0
-48 -6 -71 -29z"/>
<path d="M1206 1770 c-111 -40 -182 -105 -230 -212 -83 -183 -4 -393 181 -485
71 -35 83 -38 162 -38 155 1 276 76 343 213 30 61 33 74 33 162 0 82 -4 103
-27 152 -83 177 -288 269 -462 208z"/>
<path d="M3315 4159 c-115 -27 -492 -132 -516 -144 -36 -19 -66 -59 -81 -107
-10 -34 -7 -54 21 -166 38 -149 60 -200 100 -226 27 -18 29 -26 35 -100 11
-126 33 -311 67 -553 l32 -222 -30 -38 c-138 -178 -187 -438 -129 -678 77
-313 460 -1718 481 -1761 27 -56 81 -104 153 -137 35 -16 67 -21 127 -21 71 0
133 14 570 132 269 73 508 142 532 154 61 31 122 93 152 157 49 106 52 94
-213 1076 -139 518 -248 905 -265 942 -81 172 -239 331 -394 398 l-62 26 -99
247 c-54 136 -128 312 -164 391 -62 137 -65 145 -53 178 19 51 16 86 -17 208
-16 61 -32 122 -36 136 -18 81 -115 130 -211 108z m50 -286 c17 -71 17 -73 -4
-99 -35 -44 -27 -82 53 -254 l74 -160 -203 0 -203 0 -6 65 c-3 36 -9 95 -12
132 -6 56 -12 72 -35 95 -15 15 -36 28 -47 28 -16 0 -23 14 -40 82 -12 45 -20
83 -19 84 10 8 414 110 418 105 4 -3 14 -38 24 -78z m287 -918 c44 -110 89
-210 102 -223 12 -13 46 -29 74 -37 103 -27 203 -104 283 -219 28 -39 46 -72
42 -73 -11 -4 -1035 -278 -1107 -297 l-59 -15 6 79 c8 95 45 212 91 283 31 50
36 53 105 70 90 24 121 53 121 114 0 64 -58 112 -120 98 l-26 -6 -27 198 c-15
109 -27 206 -27 216 0 16 16 17 231 15 l232 -3 79 -200z m743 -1388 c92 -345
165 -631 162 -634 -4 -3 -271 -77 -594 -163 l-588 -158 -7 27 c-55 196 -335
1247 -333 1249 7 9 1181 319 1186 313 3 -3 81 -289 174 -634z m235 -876 c25
-96 28 -130 11 -163 -9 -18 -29 -40 -46 -49 -28 -17 -828 -236 -963 -264 -76
-16 -123 -6 -150 33 -18 26 -59 160 -51 166 6 4 1162 314 1176 315 7 1 17 -17
23 -38z"/>
<path d="M3429 2781 c-23 -23 -29 -38 -29 -71 0 -101 132 -137 183 -50 42 70
-2 150 -83 150 -33 0 -48 -6 -71 -29z"/>
<path d="M3713 1780 c-107 -25 -212 -113 -261 -218 -23 -49 -27 -70 -27 -152
0 -88 3 -101 33 -162 67 -137 187 -212 343 -213 79 0 91 3 161 38 224 110 283
381 127 578 -83 105 -245 160 -376 129z"/>
</g>
</svg>
